<?xml version="1.0" encoding="UTF-8" standalone="no"?>
<!-- Created with Inkscape (http://www.inkscape.org/) -->

<svg
   version="1.1"
   id="svg1"
   width="2006.3575"
   height="166.33791"
   viewBox="0 0 2006.3575 166.33791"
   sodipodi:docname="upload_wc73zhwlg6plnx7stixzt4juig.pdf"
   xmlns:inkscape="http://www.inkscape.org/namespaces/inkscape"
   xmlns:sodipodi="http://sodipodi.sourceforge.net/DTD/sodipodi-0.dtd"
   xmlns="http://www.w3.org/2000/svg"
   xmlns:svg="http://www.w3.org/2000/svg">
  <defs
     id="defs1" />
  <sodipodi:namedview
     id="namedview1"
     pagecolor="#ffffff"
     bordercolor="#000000"
     borderopacity="0.25"
     inkscape:showpageshadow="2"
     inkscape:pageopacity="0.0"
     inkscape:pagecheckerboard="0"
     inkscape:deskcolor="#d1d1d1">
    <inkscape:page
       x="0"
       y="0"
       inkscape:label="1"
       id="page1"
       width="2006.3575"
       height="166.33791"
       margin="0"
       bleed="0" />
  </sodipodi:namedview>
  <g
     id="g1"
     inkscape:groupmode="layer"
     inkscape:label="1">
    <path
       id="path1"
       d="M 249.016,101.934 V 60.449 c 0,-2.73 -0.047,-6.07 -0.137,-10.019 -0.09,-3.946 -0.191,-7.922 -0.301,-11.926 1.422,4.367 2.777,8.523 4.07,12.473 1.29,3.949 2.356,7.105 3.192,9.472 l 15.613,41.485 h 11.789 l 15.504,-41.485 c 0.875,-2.476 1.965,-5.797 3.277,-9.961 1.309,-4.168 2.692,-8.547 4.149,-13.133 -0.109,4.153 -0.219,8.317 -0.328,12.504 -0.11,4.184 -0.164,7.715 -0.164,10.59 v 41.485 h 14.191 V 20.598 H 299.02 L 283.461,63.34 c -0.766,2.258 -1.719,5.195 -2.867,8.816 -1.145,3.621 -2.192,7.016 -3.137,10.184 -0.945,-3.168 -2.004,-6.563 -3.168,-10.184 -1.164,-3.621 -2.129,-6.558 -2.891,-8.816 L 255.566,20.598 h -20.742 v 81.336 z m 124.379,-2.481 c 4.277,-2.531 7.605,-6.051 9.992,-10.562 2.383,-4.516 3.574,-9.754 3.574,-15.723 0,-5.969 -1.191,-11.219 -3.574,-15.75 -2.387,-4.531 -5.715,-8.07 -9.992,-10.617 -4.274,-2.547 -9.235,-3.821 -14.875,-3.821 -5.676,0 -10.645,1.274 -14.903,3.821 -4.258,2.547 -7.578,6.086 -9.961,10.617 -2.383,4.531 -3.578,9.781 -3.578,15.75 0.004,5.969 1.195,11.207 3.578,15.723 2.383,4.511 5.703,8.031 9.961,10.562 4.258,2.527 9.227,3.793 14.903,3.793 5.64,0 10.601,-1.266 14.875,-3.793 z M 347.93,86.758 c -2.621,-3.309 -3.93,-7.84 -3.93,-13.59 0,-5.785 1.309,-10.344 3.93,-13.676 2.621,-3.328 6.152,-4.996 10.59,-4.996 4.406,0 7.918,1.676 10.535,5.024 2.621,3.347 3.929,7.898 3.933,13.648 0,5.75 -1.312,10.281 -3.933,13.59 -2.617,3.312 -6.129,4.969 -10.535,4.969 -4.438,0 -7.969,-1.657 -10.59,-4.969 z m 80.98,13.867 c 3.043,-1.637 5.473,-4.129 7.289,-7.477 h 0.11 v 8.786 h 13.539 V 20.598 H 436.09 v 31.879 h -0.11 c -1.855,-3.164 -4.277,-5.512 -7.261,-7.039 -2.981,-1.528 -6.348,-2.293 -10.094,-2.293 -4.914,0 -9.246,1.265 -12.996,3.793 -3.75,2.531 -6.66,6.042 -8.734,10.535 -2.075,4.496 -3.11,9.691 -3.11,15.586 0,6.004 1.028,11.254 3.082,15.75 2.055,4.492 4.957,7.996 8.711,10.507 3.746,2.512 8.133,3.766 13.152,3.766 3.75,0 7.141,-0.82 10.18,-2.457 z M 411.637,86.789 c -2.621,-3.187 -3.93,-7.762 -3.934,-13.73 0,-5.93 1.313,-10.5 3.934,-13.704 2.617,-3.199 6.058,-4.8 10.316,-4.8 4.512,0 8.125,1.679 10.832,5.047 2.711,3.367 4.07,7.851 4.07,13.457 0,5.605 -1.355,10.089 -4.07,13.457 -2.711,3.363 -6.32,5.047 -10.832,5.047 -4.262,0 -7.699,-1.59 -10.316,-4.774 z m 82.863,13.836 c 3.02,-1.637 5.438,-4.094 7.262,-7.371 h 0.16 v 8.68 h 13.484 V 44.289 h -13.484 v 8.027 h -0.219 c -1.777,-3.058 -4.199,-5.351 -7.258,-6.878 -3.054,-1.528 -6.457,-2.293 -10.207,-2.293 -4.914,0 -9.246,1.265 -12.992,3.793 -3.75,2.531 -6.66,6.042 -8.734,10.535 -2.074,4.496 -3.114,9.691 -3.114,15.586 0,6.004 1.028,11.254 3.086,15.75 2.055,4.492 4.957,7.996 8.707,10.507 3.747,2.512 8.129,3.766 13.157,3.766 3.746,0 7.132,-0.82 10.152,-2.457 z M 477.25,86.789 c -2.617,-3.187 -3.93,-7.762 -3.93,-13.73 0,-5.93 1.309,-10.5 3.93,-13.704 2.621,-3.199 6.059,-4.8 10.32,-4.8 4.512,0 8.121,1.679 10.832,5.047 2.711,3.367 4.067,7.851 4.071,13.457 0,5.605 -1.36,10.089 -4.071,13.457 -2.711,3.363 -6.324,5.047 -10.832,5.047 -4.261,0 -7.703,-1.59 -10.32,-4.774 z m 50.383,-66.191 v 81.336 h 13.758 V 20.598 Z m 39.742,81.336 V 44.289 h -13.758 v 57.645 z m -1.039,-68.481 c 1.559,-1.508 2.344,-3.375 2.344,-5.594 0,-2.218 -0.782,-4.074 -2.344,-5.566 -1.566,-1.492 -3.516,-2.238 -5.844,-2.238 -2.367,0 -4.332,0.746 -5.894,2.238 -1.567,1.492 -2.352,3.348 -2.352,5.566 0,2.219 0.785,4.086 2.352,5.594 1.566,1.512 3.531,2.266 5.894,2.266 2.328,0 4.278,-0.754 5.844,-2.266 z m 31.937,10.836 V 28.57 h -13.812 v 15.719 h -10.047 v 11.082 h 10.047 v 32.043 c 0,4.949 1.41,8.609 4.234,10.973 2.817,2.367 7.157,3.547 13.016,3.547 h 8.297 V 90.855 h -5.895 c -2.218,0 -3.746,-0.394 -4.582,-1.175 -0.84,-0.782 -1.258,-2.211 -1.258,-4.285 V 55.371 h 11.735 V 44.289 Z m 30.461,80.465 c 8.223,0 14.047,-4.441 17.465,-13.32 l 25.766,-67.145 h -14.41 L 647.02,74.313 c -1.457,4.296 -2.836,8.554 -4.149,12.773 -0.652,-2.109 -1.328,-4.227 -2.023,-6.359 -0.692,-2.129 -1.399,-4.266 -2.125,-6.414 l -10.59,-30.024 h -14.574 l 22.214,57.32 -2.125,5.567 c -0.804,2.258 -1.722,3.887 -2.761,4.887 -1.035,1 -2.485,1.5 -4.34,1.5 h -6.82 v 11.191 z m 99.813,-27.758 c 5.949,-3.293 10.508,-7.988 13.672,-14.086 3.168,-6.094 4.754,-13.344 4.75,-21.754 0,-8.332 -1.582,-15.527 -4.75,-21.586 -3.164,-6.062 -7.676,-10.738 -13.535,-14.031 -5.86,-3.293 -12.829,-4.941 -20.907,-4.941 h -28.058 v 81.336 h 27.457 c 8.297,0 15.418,-1.645 21.371,-4.938 z M 694.129,32.938 h 12.723 c 8.586,0 14.988,2.464 19.211,7.394 4.218,4.934 6.332,11.875 6.335,20.824 0,9.028 -2.121,16.024 -6.359,20.992 -4.242,4.965 -10.785,7.45 -19.625,7.45 h -12.285 z m 95.309,67.687 c 3.023,-1.637 5.441,-4.094 7.265,-7.371 h 0.16 v 8.68 h 13.485 V 44.289 h -13.485 v 8.027 h -0.218 c -1.782,-3.058 -4.2,-5.351 -7.258,-6.878 -3.055,-1.528 -6.457,-2.293 -10.207,-2.293 -4.914,0 -9.246,1.265 -12.996,3.793 -3.746,2.531 -6.657,6.042 -8.731,10.535 -2.074,4.496 -3.113,9.691 -3.113,15.586 0,6.004 1.027,11.254 3.086,15.75 2.054,4.492 4.957,7.996 8.703,10.507 3.75,2.512 8.137,3.766 13.156,3.766 3.75,0 7.133,-0.82 10.153,-2.457 z M 772.191,86.789 c -2.621,-3.187 -3.929,-7.762 -3.929,-13.73 0,-5.93 1.308,-10.5 3.929,-13.704 2.622,-3.199 6.059,-4.8 10.317,-4.8 4.515,0 8.125,1.679 10.836,5.047 2.711,3.367 4.066,7.851 4.066,13.457 0,5.605 -1.355,10.089 -4.066,13.457 -2.711,3.363 -6.324,5.047 -10.836,5.047 -4.258,0 -7.695,-1.59 -10.317,-4.774 z m 67.743,-28.195 c 2.406,-2.258 5.406,-3.387 9.007,-3.387 3.676,0 6.532,1.094 8.571,3.277 2.039,2.184 3.058,5.387 3.054,9.606 v 33.844 h 13.813 V 65.906 c 0,-7.386 -1.918,-13.027 -5.758,-16.922 -3.84,-3.894 -8.781,-5.839 -14.82,-5.839 -7.789,0 -13.688,3.328 -17.688,9.988 v -8.844 h -13.539 v 57.645 h 13.758 V 69.348 c 0,-4.914 1.199,-8.5 3.602,-10.754 z m 85.183,41.785 c 3.805,-1.91 6.863,-4.52 9.176,-7.832 2.309,-3.313 3.625,-7.078 3.953,-11.301 h -13.59 c -0.656,3.203 -1.984,5.762 -3.988,7.668 -1.996,1.914 -4.801,2.867 -8.406,2.867 -4.512,0 -8.039,-1.683 -10.59,-5.047 -2.547,-3.367 -3.82,-7.89 -3.82,-13.566 0,-5.715 1.273,-10.262 3.82,-13.648 2.551,-3.383 6.078,-5.075 10.59,-5.075 3.57,0 6.418,0.973 8.547,2.918 2.125,1.95 3.445,4.469 3.957,7.563 h 13.48 c -0.398,-4.297 -1.754,-8.09 -4.066,-11.383 -2.309,-3.293 -5.356,-5.875 -9.141,-7.75 -3.785,-1.875 -8.098,-2.813 -12.941,-2.813 -5.602,0 -10.524,1.282 -14.766,3.848 -4.238,2.567 -7.531,6.113 -9.879,10.645 -2.348,4.531 -3.523,9.761 -3.519,15.695 0,5.934 1.171,11.152 3.519,15.668 2.348,4.512 5.641,8.043 9.879,10.59 4.242,2.547 9.164,3.82 14.766,3.82 4.879,0 9.218,-0.957 13.019,-2.867 z m 60.129,0.437 c 3.715,-1.621 6.797,-3.867 9.254,-6.742 2.457,-2.875 4.051,-6.187 4.777,-9.933 h -12.882 c -0.801,2.472 -2.332,4.464 -4.586,5.976 -2.254,1.512 -5.11,2.266 -8.571,2.266 -4.621,0 -8.226,-1.438 -10.808,-4.313 -2.582,-2.875 -3.965,-6.66 -4.149,-11.355 h 41.707 v -3.766 c 0,-5.894 -1.148,-11.09 -3.441,-15.586 -2.293,-4.492 -5.512,-8.015 -9.66,-10.562 -4.149,-2.547 -8.989,-3.821 -14.524,-3.821 -5.386,0 -10.152,1.301 -14.3,3.903 -4.145,2.601 -7.395,6.168 -9.743,10.699 -2.351,4.531 -3.523,9.727 -3.523,15.586 0,5.824 1.141,11 3.414,15.531 2.273,4.531 5.523,8.086 9.746,10.672 4.219,2.582 9.207,3.875 14.957,3.875 4.512,0 8.621,-0.808 12.332,-2.43 z M 962.84,57.473 c 2.492,-2.383 5.742,-3.575 9.742,-3.575 3.969,0 7.219,1.192 9.746,3.575 2.531,2.382 4.012,5.632 4.449,9.746 h -28.386 c 0.476,-4.114 1.957,-7.364 4.449,-9.746 z m 86.824,44.461 V 72.348 h 16.758 l 15.281,29.586 h 15.891 L 1080.617,69.73 c 4.836,-1.968 8.621,-4.933 11.352,-8.898 2.73,-3.969 4.094,-8.719 4.094,-14.25 0,-5.312 -1.184,-9.914 -3.547,-13.809 -2.368,-3.894 -5.727,-6.898 -10.071,-9.007 -4.351,-2.11 -9.507,-3.168 -15.476,-3.168 h -31.715 v 81.336 z m 0,-69.106 h 16.488 c 4.836,0 8.664,1.235 11.485,3.711 2.824,2.477 4.234,5.824 4.234,10.043 0,4.258 -1.402,7.633 -4.203,10.129 -2.805,2.492 -6.605,3.738 -11.41,3.738 h -16.594 z m 94.711,67.988 c 3.711,-1.621 6.797,-3.867 9.25,-6.742 2.457,-2.875 4.047,-6.187 4.777,-9.933 h -12.882 c -0.801,2.472 -2.329,4.464 -4.582,5.976 -2.258,1.512 -5.118,2.266 -8.571,2.266 -4.625,0 -8.226,-1.438 -10.808,-4.313 -2.586,-2.875 -3.969,-6.66 -4.149,-11.355 h 41.703 v -3.766 c 0,-5.894 -1.148,-11.09 -3.441,-15.586 -2.289,-4.492 -5.508,-8.015 -9.66,-10.562 -4.149,-2.547 -8.989,-3.821 -14.52,-3.821 -5.387,0 -10.152,1.301 -14.301,3.903 -4.152,2.601 -7.402,6.168 -9.75,10.699 -2.343,4.531 -3.515,9.727 -3.515,15.586 0,5.824 1.137,11 3.41,15.531 2.273,4.531 5.519,8.086 9.742,10.672 4.223,2.582 9.207,3.875 14.957,3.875 4.512,0 8.625,-0.808 12.34,-2.43 z m -22.41,-43.343 c 2.496,-2.383 5.742,-3.575 9.746,-3.575 3.965,0 7.215,1.192 9.742,3.575 2.527,2.382 4.012,5.632 4.449,9.746 h -28.386 c 0.472,-4.114 1.957,-7.364 4.449,-9.746 z m 81.75,43.59 c 3.672,-1.493 6.555,-3.614 8.648,-6.36 2.09,-2.746 3.137,-5.996 3.141,-9.746 0,-4.219 -1.356,-7.621 -4.066,-10.207 -2.711,-2.582 -6.922,-4.477 -12.637,-5.676 l -10.375,-2.129 c -2.403,-0.547 -4.274,-1.355 -5.621,-2.429 -1.348,-1.075 -2.02,-2.465 -2.02,-4.176 0,-1.965 0.875,-3.621 2.621,-4.969 1.742,-1.348 4.129,-2.019 7.149,-2.019 3.129,0 5.66,0.836 7.59,2.511 1.929,1.676 2.929,3.805 3,6.387 h 12.941 c -0.148,-5.934 -2.414,-10.617 -6.801,-14.059 -4.383,-3.437 -10.07,-5.156 -17.058,-5.156 -7.024,0 -12.645,1.629 -16.868,4.887 -4.218,3.254 -6.332,7.539 -6.332,12.855 0,8.77 5.606,14.321 16.817,16.649 l 9.824,2.019 c 2.402,0.512 4.312,1.293 5.73,2.348 1.422,1.055 2.133,2.457 2.129,4.203 0,2.039 -0.957,3.711 -2.867,5.024 -1.906,1.308 -4.515,1.964 -7.828,1.964 -3.461,0 -6.172,-0.773 -8.137,-2.32 -1.965,-1.547 -3.093,-3.723 -3.382,-6.523 h -13.598 c 0.437,6.187 3.015,10.925 7.73,14.218 4.707,3.293 10.575,4.942 17.602,4.942 4.769,0 8.992,-0.746 12.668,-2.238 z m 58.953,-0.247 c 3.711,-1.621 6.797,-3.867 9.254,-6.742 2.457,-2.875 4.047,-6.187 4.773,-9.933 h -12.882 c -0.801,2.472 -2.329,4.464 -4.586,5.976 -2.258,1.512 -5.114,2.266 -8.567,2.266 -4.625,0 -8.226,-1.438 -10.808,-4.313 -2.586,-2.875 -3.969,-6.66 -4.153,-11.355 h 41.707 v -3.766 c 0,-5.894 -1.144,-11.09 -3.437,-15.586 -2.293,-4.492 -5.516,-8.015 -9.664,-10.562 -4.149,-2.547 -8.992,-3.821 -14.52,-3.821 -5.387,0 -10.156,1.301 -14.305,3.903 -4.148,2.601 -7.394,6.168 -9.742,10.699 -2.347,4.531 -3.523,9.727 -3.519,15.586 0,5.824 1.136,11 3.41,15.531 2.273,4.531 5.519,8.086 9.742,10.672 4.223,2.582 9.207,3.875 14.957,3.875 4.516,0 8.629,-0.808 12.34,-2.43 z m -22.41,-43.343 c 2.496,-2.383 5.742,-3.575 9.746,-3.575 3.965,0 7.215,1.192 9.742,3.575 2.531,2.382 4.016,5.632 4.449,9.746 h -28.386 c 0.472,-4.114 1.957,-7.364 4.449,-9.746 z m 78.91,43.152 c 3.016,-1.637 5.437,-4.094 7.258,-7.371 h 0.164 v 8.68 h 13.48 V 44.289 h -13.48 v 8.027 h -0.219 c -1.781,-3.058 -4.203,-5.351 -7.258,-6.878 -3.058,-1.528 -6.461,-2.293 -10.211,-2.293 -4.91,0 -9.242,1.265 -12.992,3.793 -3.75,2.531 -6.66,6.042 -8.734,10.535 -2.074,4.496 -3.113,9.691 -3.113,15.586 0,6.004 1.031,11.254 3.085,15.75 2.055,4.492 4.957,7.996 8.711,10.507 3.746,2.512 8.133,3.766 13.153,3.766 3.746,0 7.133,-0.82 10.156,-2.457 z m -17.254,-13.836 c -2.617,-3.187 -3.93,-7.762 -3.93,-13.73 0,-5.93 1.313,-10.5 3.93,-13.704 2.621,-3.199 6.063,-4.8 10.32,-4.8 4.512,0 8.125,1.679 10.836,5.047 2.711,3.367 4.067,7.851 4.067,13.457 0,5.605 -1.356,10.089 -4.067,13.457 -2.715,3.363 -6.328,5.047 -10.836,5.047 -4.261,0 -7.699,-1.59 -10.32,-4.774 z m 64.141,15.145 V 69.293 c 0,-4.516 1.121,-7.898 3.359,-10.156 2.238,-2.254 4.996,-3.383 8.27,-3.383 1.347,0 2.64,0.055 3.875,0.164 1.242,0.109 2.109,0.199 2.625,0.273 v -12.23 c -0.551,-0.035 -1.196,-0.078 -1.942,-0.133 -0.746,-0.055 -1.594,-0.082 -2.539,-0.082 -3.711,0 -6.703,0.863 -8.98,2.59 -2.274,1.73 -3.938,4.23 -4.993,7.508 h -0.164 v -9.555 h -13.261 v 57.645 z m 64.55,-1.555 c 3.805,-1.91 6.864,-4.52 9.172,-7.832 2.313,-3.313 3.633,-7.078 3.957,-11.301 h -13.589 c -0.657,3.203 -1.985,5.762 -3.985,7.668 -2,1.914 -4.805,2.867 -8.41,2.867 -4.512,0 -8.039,-1.683 -10.59,-5.047 -2.547,-3.367 -3.82,-7.89 -3.816,-13.566 0,-5.715 1.273,-10.262 3.816,-13.648 2.551,-3.383 6.078,-5.075 10.59,-5.075 3.566,0 6.414,0.973 8.543,2.918 2.133,1.95 3.449,4.469 3.961,7.563 h 13.48 c -0.398,-4.297 -1.754,-8.09 -4.066,-11.383 -2.309,-3.293 -5.355,-5.875 -9.141,-7.75 -3.789,-1.875 -8.101,-2.813 -12.937,-2.813 -5.606,0 -10.527,1.282 -14.77,3.848 -4.238,2.567 -7.527,6.113 -9.875,10.645 -2.351,4.531 -3.523,9.761 -3.523,15.695 0,5.934 1.172,11.152 3.523,15.668 2.344,4.512 5.637,8.043 9.875,10.59 4.243,2.547 9.164,3.82 14.77,3.82 4.875,0 9.215,-0.957 13.015,-2.867 z m 39.715,-41.785 c 2.403,-2.258 5.403,-3.387 9.008,-3.387 3.676,0 6.535,1.094 8.57,3.277 2.04,2.184 3.059,5.387 3.055,9.606 v 33.844 h 13.817 V 65.906 c 0,-7.386 -1.922,-13.027 -5.762,-16.922 -3.84,-3.894 -8.781,-5.839 -14.824,-5.839 -7.637,0 -13.461,3.203 -17.465,9.605 V 20.598 h -13.758 v 81.336 h 13.758 V 69.348 c 0,-4.914 1.199,-8.5 3.601,-10.754 z"
       style="fill:#0c4028;fill-opacity:1;fill-rule:evenodd;stroke:none"
       transform="scale(1.3333333)" />
    <path
       id="path2"
       d="M 49.508,0 99.016,102.277 H 0 Z"
       style="fill:#adbb9f;fill-opacity:1;fill-rule:evenodd;stroke:none"
       transform="scale(1.3333333)" />
    <path
       id="path3"
       d="m 148.527,0 49.508,102.277 H 99.016 Z"
       style="fill:#0c4028;fill-opacity:1;fill-rule:evenodd;stroke:none"
       transform="scale(1.3333333)" />
    <path
       id="path4"
       d="m 183.52,74.449 c 4,-2.312 7.199,-4.57 9.593,-6.777 2.395,-2.203 4.012,-4.352 4.856,-6.438 0.844,-2.086 1.019,-4.379 0.523,-6.875 -0.496,-2.5 -1.933,-5.187 -4.316,-8.062 -2.387,-2.879 -5.879,-5.738 -10.485,-8.582 -5.402,-3.34 -11.07,-5.813 -17.003,-7.41 -5.938,-1.602 -12,-2.227 -18.192,-1.883 -4.769,0.25 -9.453,1.223 -14.043,2.918 -3.285,1.203 -7.5,3.293 -12.644,6.262 L 99.023,50.758 159.652,88.23 Z m -68.59,-24.324 13.898,-8.023 c 5.203,-3.004 9.391,-4.93 12.567,-5.774 4.406,-1.16 9.449,-1.344 15.125,-0.551 5.675,0.793 11.683,3.153 18.023,7.071 4.578,2.828 7.895,5.57 9.945,8.222 2.055,2.657 2.996,5.168 2.825,7.543 -0.125,1.688 -1.055,3.477 -2.793,5.367 -1.735,1.895 -4.786,4.102 -9.149,6.618 l -14.121,8.156 z"
       style="fill:#ffffff;fill-opacity:1;fill-rule:evenodd;stroke:none"
       transform="scale(1.3333333)" />
    <path
       id="path5"
       d="m 183.52,70.273 c 4,-2.308 7.199,-4.566 9.593,-6.773 2.395,-2.207 4.012,-4.352 4.856,-6.437 0.844,-2.086 1.019,-4.379 0.523,-6.879 -0.496,-2.5 -1.933,-5.188 -4.316,-8.063 -2.387,-2.875 -5.879,-5.734 -10.485,-8.582 -5.402,-3.34 -11.07,-5.809 -17.003,-7.406 -5.938,-1.602 -12,-2.231 -18.192,-1.887 -4.769,0.254 -9.453,1.227 -14.043,2.918 -3.285,1.207 -7.5,3.293 -12.644,6.266 l -22.786,13.156 60.629,37.469 z m -68.59,-24.32 13.898,-8.023 c 5.203,-3.008 9.391,-4.93 12.567,-5.774 4.406,-1.16 9.449,-1.343 15.125,-0.551 5.675,0.793 11.683,3.149 18.023,7.071 4.578,2.828 7.895,5.57 9.945,8.222 2.055,2.653 2.996,5.168 2.825,7.543 -0.125,1.684 -1.055,3.473 -2.793,5.368 -1.735,1.894 -4.786,4.097 -9.149,6.617 l -14.121,8.156 z"
       style="fill:#9a3f1c;fill-opacity:1;fill-rule:evenodd;stroke:none"
       transform="scale(1.3333333)" />
    <path
       id="path6"
       d="m 148.625,0.238 -21.586,44.602 43.41,0.832"
       style="fill:#0c4028;fill-opacity:1;fill-rule:evenodd;stroke:none"
       transform="scale(1.3333333)" />
  </g>
</svg>
