<?xml version="1.0" standalone="no"?><!DOCTYPE svg PUBLIC "-//W3C//DTD SVG 1.1//EN" "http://www.w3.org/Graphics/SVG/1.1/DTD/svg11.dtd"><svg t="1768901383654" class="icon" viewBox="0 0 1024 1024" version="1.1" xmlns="http://www.w3.org/2000/svg" p-id="5836" xmlns:xlink="http://www.w3.org/1999/xlink" width="200" height="200"><path d="M670.47619 614.058667a329.094095 329.094095 0 0 0 163.498667-284.867048C833.974857 147.358476 689.834667 0 512 0S190.025143 147.358476 190.025143 329.142857a328.850286 328.850286 0 0 0 163.498667 284.91581C185.636571 676.425143 62.902857 834.511238 48.761905 1024h71.533714c18.090667-204.702476 186.758095-365.665524 391.704381-365.665524 204.946286 0 373.613714 160.963048 391.704381 365.665524H975.238095c-14.140952-189.488762-136.874667-347.574857-304.761905-409.941333zM261.510095 329.191619c0-141.214476 112.39619-256 250.489905-256 138.093714 0 250.489905 114.785524 250.489905 256 0 141.165714-112.39619 255.902476-250.489905 255.902476-138.093714 0-250.489905-114.736762-250.489905-255.902476z" fill="#1D57C1" p-id="5837"></path></svg>